<?xml version="1.0" encoding="UTF-8" standalone="no"?>
<svg
   xmlns:dc="http://purl.org/dc/elements/1.1/"
   xmlns:cc="http://creativecommons.org/ns#"
   xmlns:rdf="http://www.w3.org/1999/02/22-rdf-syntax-ns#"
   xmlns:svg="http://www.w3.org/2000/svg"
   xmlns="http://www.w3.org/2000/svg"
   xmlns:sodipodi="http://sodipodi.sourceforge.net/DTD/sodipodi-0.dtd"
   xmlns:inkscape="http://www.inkscape.org/namespaces/inkscape"
   width="20px"
   height="20px"
   version="1.1"
   id="svg2842"
   inkscape:version="0.47 r22583"
   sodipodi:docname="engine.svg">
  <metadata
     id="metadata2850">
    <rdf:RDF>
      <cc:Work
         rdf:about="">
        <dc:format>image/svg+xml</dc:format>
        <dc:type
           rdf:resource="http://purl.org/dc/dcmitype/StillImage" />
      </cc:Work>
    </rdf:RDF>
  </metadata>
  <defs
     id="defs2848">
    <inkscape:perspective
       sodipodi:type="inkscape:persp3d"
       inkscape:vp_x="0 : 10 : 1"
       inkscape:vp_y="0 : 1000 : 0"
       inkscape:vp_z="20 : 10 : 1"
       inkscape:persp3d-origin="10 : 6.6666667 : 1"
       id="perspective2852" />
  </defs>
  <sodipodi:namedview
     pagecolor="#ffffff"
     bordercolor="#666666"
     borderopacity="1"
     objecttolerance="10"
     gridtolerance="10"
     guidetolerance="10"
     inkscape:pageopacity="0"
     inkscape:pageshadow="2"
     inkscape:window-width="1014"
     inkscape:window-height="692"
     id="namedview2846"
     showgrid="false"
     inkscape:zoom="11.8"
     inkscape:cx="10"
     inkscape:cy="10"
     inkscape:window-x="262"
     inkscape:window-y="18"
     inkscape:window-maximized="0"
     inkscape:current-layer="svg2842" />
  <path
     d="M 8.84375 0 L 8.46875 2.3125 L 7.5 2.5625 L 6.03125 0.75 L 4 1.9375 L 4.84375 4.125 L 4.125 4.8125 L 1.9375 3.96875 L 0.75 6 L 2.59375 7.5 L 2.3125 8.46875 L 0 8.84375 L 0 11.15625 L 2.3125 11.53125 L 2.59375 12.5 L 0.75 14 L 1.9375 16.03125 L 4.125 15.1875 L 4.84375 15.875 L 4 18.0625 L 6.03125 19.25 L 7.5 17.4375 L 8.46875 17.6875 L 8.84375 20 L 11.15625 20 L 11.53125 17.6875 L 12.5 17.4375 L 13.96875 19.25 L 16 18.0625 L 15.15625 15.875 L 15.875 15.1875 L 18.0625 16.03125 L 19.25 14 L 17.40625 12.5 L 17.6875 11.53125 L 20 11.15625 L 20 8.84375 L 17.6875 8.46875 L 17.40625 7.5 L 19.25 6 L 18.0625 3.96875 L 15.875 4.8125 L 15.15625 4.125 L 16 1.9375 L 13.96875 0.75 L 12.5 2.5625 L 11.53125 2.3125 L 11.15625 0 L 8.84375 0 z M 10 6 C 12.209139 6 14 7.790861 14 10 C 14 12.209139 12.209139 14 10 14 C 7.790861 14 6 12.209139 6 10 C 6 7.790861 7.790861 6 10 6 z "
     id="path2844" />
</svg>
