<?xml version="1.0" encoding="UTF-8" standalone="no"?>
<!-- Created with Inkscape (http://www.inkscape.org/) -->

<svg
   xmlns:dc="http://purl.org/dc/elements/1.1/"
   xmlns:cc="http://creativecommons.org/ns#"
   xmlns:rdf="http://www.w3.org/1999/02/22-rdf-syntax-ns#"
   xmlns:svg="http://www.w3.org/2000/svg"
   xmlns="http://www.w3.org/2000/svg"
   xmlns:sodipodi="http://sodipodi.sourceforge.net/DTD/sodipodi-0.dtd"
   xmlns:inkscape="http://www.inkscape.org/namespaces/inkscape"
   width="566.92914"
   height="566.92914"
   id="svg2"
   version="1.1"
   inkscape:version="0.47 r22583"
   sodipodi:docname="Documento nuevo 1">
  <defs
     id="defs4">
    <inkscape:perspective
       sodipodi:type="inkscape:persp3d"
       inkscape:vp_x="0 : 526.18109 : 1"
       inkscape:vp_y="0 : 1000 : 0"
       inkscape:vp_z="744.09448 : 526.18109 : 1"
       inkscape:persp3d-origin="372.04724 : 350.78739 : 1"
       id="perspective10" />
    <inkscape:perspective
       id="perspective2824"
       inkscape:persp3d-origin="0.5 : 0.33333333 : 1"
       inkscape:vp_z="1 : 0.5 : 1"
       inkscape:vp_y="0 : 1000 : 0"
       inkscape:vp_x="0 : 0.5 : 1"
       sodipodi:type="inkscape:persp3d" />
  </defs>
  <sodipodi:namedview
     id="base"
     pagecolor="#ffffff"
     bordercolor="#666666"
     borderopacity="1.0"
     inkscape:pageopacity="0.0"
     inkscape:pageshadow="2"
     inkscape:zoom="0.56381402"
     inkscape:cx="456.74873"
     inkscape:cy="319.14673"
     inkscape:document-units="px"
     inkscape:current-layer="layer1"
     showgrid="false"
     units="px"
     inkscape:window-width="1267"
     inkscape:window-height="746"
     inkscape:window-x="22"
     inkscape:window-y="22"
     inkscape:window-maximized="0" />
  <metadata
     id="metadata7">
    <rdf:RDF>
      <cc:Work
         rdf:about="">
        <dc:format>image/svg+xml</dc:format>
        <dc:type
           rdf:resource="http://purl.org/dc/dcmitype/StillImage" />
        <dc:title></dc:title>
      </cc:Work>
    </rdf:RDF>
  </metadata>
  <g
     inkscape:label="Capa 1"
     inkscape:groupmode="layer"
     id="layer1"
     transform="translate(0,-485.43178)">
    <g
       transform="matrix(1.25,0,0,-1.25,0.17059334,1052.5569)"
       inkscape:label="montage2"
       id="g2826"
       style="fill:#000000">
      <g
         transform="scale(1,-1)"
         id="g2828"
         style="fill:#000000">
        <path
           id="path2830"
           style="fill:#000000;fill-opacity:1;fill-rule:nonzero;stroke:none"
           d="m 119.76807,-404.59668 c -10.57178,0.10791 -21.22022,3.37939 -30.43067,10.07129 -23.5747,17.12402 -28.80615,50.1206 -11.6831,73.69141 2.04883,2.81835 4.33886,5.38037 6.7959,7.66601 0,0 -10.05176,95.61524 -10.05176,95.61524 -13.75196,8.22656 -23.59473,22.61718 -25.39893,39.78125 -3.04346,28.97265 17.98633,54.92968 46.96582,57.9746 28.97852,3.04688 54.92774,-17.98632 57.97852,-46.96289 1.80029,-17.16992 -4.84668,-33.27148 -16.58643,-44.18945 0,0 5.84912,-55.59082 5.84912,-55.59082 0,0 32.83594,45.20801 32.83594,45.20801 -6.47412,20.97461 0.67481,44.63672 19.42139,58.25781 23.57177,17.125 56.56445,11.88867 73.69238,-11.68359 10.13965,-13.95899 12.44531,-31.21875 7.73828,-46.54102 0,0 32.83594,-45.2207 32.83594,-45.2207 0,0 5.84961,55.57031 5.84961,55.57031 -11.73926,10.91797 -18.38672,27.01953 -16.58594,44.18945 3.0459,28.97657 29.01856,50.00977 57.99805,46.96289 28.97949,-3.04492 49.99219,-29.00195 46.94922,-57.9746 -1.8086,-17.16407 -11.65039,-31.55469 -25.39844,-39.78125 0,0 -10.05176,-95.61524 -10.05176,-95.61524 11.73926,-10.91308 18.39063,-27.01514 16.58203,-44.18701 -3.04297,-28.97998 -29.01562,-49.9917 -57.99414,-46.94482 -28.98047,3.04199 -49.99316,28.9956 -46.94531,57.97851 0.36816,3.47656 1.04687,6.83203 2.03613,10.04736 0,0 -55.68115,76.65821 -55.68115,76.65821 0,0 -55.72168,-76.68994 -55.72168,-76.68994 4.70312,-15.31543 2.40625,-32.58057 -7.7334,-46.54053 -10.43603,-14.36524 -26.7666,-21.91944 -43.26562,-21.75049 z m -0.33252,17.58447 c 0.45654,-0.0112 0.91455,-0.004 1.37109,0 10.70947,0.14844 21.20947,5.16455 27.98584,14.49317 8.48242,11.67236 8.75195,26.79492 1.89111,38.48681 0,0 57.27784,78.85938 57.27784,78.85938 -8.69678,3.24756 -16.62647,8.81982 -22.77247,16.54736 0,0 -57.29443,-78.85644 -57.29443,-78.85644 -13.23437,2.90283 -27.53125,-2.02051 -36.00342,-13.68067 -11.41797,-15.71582 -7.94238,-37.71094 7.77393,-49.12988 5.98584,-4.34522 12.89453,-6.54297 19.77051,-6.71973 z m 213.08398,0 c 17.8291,-0.0635 33.15723,13.37598 35.06152,31.48975 1.50879,14.3457 -5.833,27.58789 -17.62109,34.2832 0,0 12.14453,115.43848 12.14453,115.43848 12.91797,4.0957 22.85254,15.51367 24.35645,29.85742 2.03222,19.32031 -11.97949,36.62109 -31.29688,38.65234 -19.32422,2.03711 -36.6416,-11.98437 -38.67383,-31.29687 -1.50683,-14.34961 5.83399,-27.5918 17.625,-34.29102 0,0 -12.125,-115.4375 -12.125,-115.4375 -12.9248,-4.09668 -22.85253,-15.51123 -24.36328,-29.85742 -2.03418,-19.3208 11.97852,-36.62109 31.30469,-38.64941 1.20606,-0.12842 2.39649,-0.18457 3.58789,-0.18897 z m -211.97314,19.91944 c -3.17578,-0.0444 -6.39893,0.91699 -9.16211,2.92578 -6.81055,4.94726 -8.31885,14.47851 -3.3711,21.28955 4.95069,6.8081 14.48243,8.31592 21.28858,3.36426 6.81299,-4.94385 8.31982,-14.47412 3.36914,-21.28614 -2.93604,-4.04541 -7.48145,-6.23047 -12.12451,-6.29345 z m 212.03369,0 c -0.51856,0.003 -1.05567,0.0395 -1.57617,0.0908 -8.37598,0.88281 -14.42969,8.38379 -13.55176,16.75195 0.87793,8.375 8.38379,14.45361 16.75098,13.5752 8.37109,-0.88624 14.43457,-8.38428 13.55566,-16.75538 -0.8252,-7.84912 -7.45703,-13.6875 -15.17871,-13.66259 z m -41.24414,48.12744 c 3.95312,4.95459 8.77246,9.16113 14.19238,12.40478 0,0 1.46387,13.9043 1.46387,13.9043 0,0 -50.18457,69.08594 -50.18457,69.08594 6.85547,11.68554 6.60742,26.82226 -1.86817,38.48633 -11.41894,15.71484 -33.43457,19.19531 -49.14648,7.77343 -15.71729,-11.41992 -19.19678,-33.41406 -7.77393,-49.13134 8.47119,-11.667 22.78076,-16.58985 36.02393,-13.67969 0,0 57.29297,-78.84375 57.29297,-78.84375 z m -190.30371,16.21728 c 5.91015,2.31836 12.19238,3.54053 18.51611,3.64942 0,0 8.21826,11.30517 8.21826,11.30517 0,0 -8.94092,84.91455 -8.94092,84.91455 11.79248,6.69922 19.12891,19.94141 17.62549,34.29102 -2.03662,19.3125 -19.33349,33.33398 -38.65381,31.29687 -19.32129,-2.03125 -33.333,-19.33203 -31.30078,-38.65234 1.50293,-14.34375 11.43506,-25.76172 24.35596,-29.85742 0,0 10.17969,-96.94727 10.17969,-96.94727 z m 125.25195,81.72852 c -4.64258,0.0664 -9.20557,2.25195 -12.14453,6.29883 -4.94727,6.80664 -3.43994,16.33984 3.37207,21.28711 6.81152,4.94726 16.33398,3.4375 21.28516,-3.3711 4.94824,-6.8125 3.44433,-16.34179 -3.36817,-21.28906 -2.76562,-2.00977 -5.96973,-2.9668 -9.14453,-2.92578 z m -124.7666,33.50781 c -7.7251,-0.0312 -14.37354,5.79492 -15.19873,13.64649 -0.87842,8.36914 5.19531,15.86718 13.57129,16.7539 8.36816,0.87695 15.85254,-5.20117 16.73095,-13.57226 0.88184,-8.3711 -5.17627,-15.875 -13.55175,-16.75 -0.521,-0.0605 -1.03418,-0.0781 -1.55176,-0.0781 z m 249.92187,0 c -0.51269,0 -1.03027,0.0176 -1.55175,0.0781 -8.37598,0.875 -14.45411,8.3789 -13.57129,16.75 0.88183,8.37109 8.3789,14.44921 16.75,13.57226 8.37304,-0.88672 14.4541,-8.38476 13.57226,-16.7539 -0.82617,-7.85157 -7.47363,-13.67774 -15.19922,-13.64649 z" />
        <path
           id="path2832"
           style="fill:#000000;fill-opacity:1;fill-rule:nonzero;stroke:none"
           d="m 49,-50.11523 c 0,0 4.60791,0 4.60791,0 0,0 3.271,-31.10547 3.271,-31.10547 0,0 17.42675,23.9834 17.42675,23.9834 0,0 17.4419,-24.00586 17.4419,-24.00586 0,0 3.27099,31.12793 3.27099,31.12793 0,0 4.61084,0 4.61084,0 0,0 -4.08496,-38.84961 -4.08496,-38.84961 0,0 -4.60791,0 -4.60791,0 0,0 -16.63086,23.93164 -16.63086,23.93164 0,0 -17.3872,-23.93164 -17.3872,-23.93164 0,0 -3.83692,0 -3.83692,0" />
        <path
           id="path2834"
           style="fill:#000000;fill-opacity:1;fill-rule:nonzero;stroke:none"
           d="m 135.33936,-90.17871 c -11.35157,0 -20.58643,9.23828 -20.58643,20.58984 0,11.35059 9.23486,20.58887 20.58643,20.58887 11.35546,0 20.58935,-9.23828 20.58935,-20.58887 0,-11.35156 -9.23389,-20.58984 -20.58935,-20.58984 z m 16.00634,20.58984 c 0,8.82324 -7.1792,16.00586 -16.00634,16.00586 -8.82373,0 -16.00635,-7.18262 -16.00635,-16.00586 0,-8.82715 7.18262,-16.00683 16.00635,-16.00683 8.82714,0 16.00634,7.17968 16.00634,16.00683 z" />
        <path
           id="path2836"
           style="fill:#000000;fill-opacity:1;fill-rule:nonzero;stroke:none"
           d="m 172.97705,-50.11523 c 0,0 4.5835,0 4.5835,0 0,0 0,-31.51465 0,-31.51465 0,0 28.38574,31.51465 28.38574,31.51465 0,0 4.11328,0 4.11328,0 0,0 0,-38.84961 0,-38.84961 0,0 -4.58447,0 -4.58447,0 0,0 0,31.47754 0,31.47754 0,0 -28.35156,-31.47754 -28.35156,-31.47754 0,0 -4.14649,0 -4.14649,0" />
        <path
           id="path2838"
           style="fill:#000000;fill-opacity:1;fill-rule:nonzero;stroke:none"
           d="m 227.01416,-84.37988 c 0,0 13.76123,0 13.76123,0 0,0 0,34.26465 0,34.26465 0,0 4.58203,0 4.58203,0 0,0 0,-34.26465 0,-34.26465 0,0 13.76074,0 13.76074,0 0,0 0,-4.58496 0,-4.58496 0,0 -32.104,0 -32.104,0" />
        <path
           id="path2840"
           style="fill:#000000;fill-opacity:1;fill-rule:nonzero;stroke:none"
           d="m 282.92773,-88.96777 c 0,0 -19.74609,38.85254 -19.74609,38.85254 0,0 5.1416,0 5.1416,0 0,0 6.17481,-12.15235 6.17481,-12.15235 0,0 21.50683,0 21.50683,0 0,0 6.17578,12.15235 6.17578,12.15235 0,0 5.14747,0 5.14747,0 0,0 -19.75586,-38.85254 -19.75586,-38.85254 0,0 -2.44141,0 -2.44141,0 0,0 -2.20313,0 -2.20313,0 z m 2.3252,5.54297 c 0,0 8.41895,16.57617 8.41895,16.57617 0,0 -16.8418,0 -16.8418,0 0,0 8.42285,-16.57617 8.42285,-16.57617 z" />
        <path
           id="path2842"
           style="fill:#000000;fill-opacity:1;fill-rule:nonzero;stroke:none"
           d="m 338.17188,-90.18262 c -11.35254,0 -20.59473,9.24219 -20.59473,20.59375 0,11.35352 9.24219,20.58594 20.59473,20.58594 11.33691,0 20.56152,-9.2041 20.58593,-20.53418 0,0 -2.38379,0 -2.38379,0 0,0 -2.19629,0 -2.19629,0 0,0 -12.60546,0 -12.60546,0 0,0 0,4.58301 0,4.58301 0,0 11.91894,0 11.91894,0 -1.99121,6.57324 -8.10058,11.37109 -15.31933,11.37109 -8.8252,0 -16.00489,-7.17871 -16.00489,-16.00586 0,-8.82324 7.17969,-16.0039 16.00489,-16.0039 6.30273,0 11.75683,3.65918 14.36523,8.96777 0,0 4.11621,-2.03613 4.11621,-2.03613 -3.3584,-6.82032 -10.38086,-11.52149 -18.48144,-11.52149 z" />
        <path
           id="path2844"
           style="fill:#000000;fill-opacity:1;fill-rule:nonzero;stroke:none"
           d="m 375.83203,-50.11523 c 0,0 28.73242,0 28.73242,0 0,0 0,-4.58301 0,-4.58301 0,0 -24.14843,0 -24.14843,0 0,0 0,-13.77149 0,-13.77149 0,0 24.14843,0 24.14843,0 0,0 0,-4.583 0,-4.583 0,0 -24.14843,0 -24.14843,0 0,0 0,-11.32715 0,-11.32715 0,0 24.14843,0 24.14843,0 0,0 0,-4.58496 0,-4.58496 0,0 -28.73242,0 -28.73242,0" />
      </g>
    </g>
  </g>
</svg>
